<?xml version="1.0" encoding="UTF-8" standalone="no"?><!DOCTYPE svg PUBLIC "-//W3C//DTD SVG 1.1//EN" "http://www.w3.org/Graphics/SVG/1.1/DTD/svg11.dtd"><svg width="100%" height="100%" viewBox="0 0 334 400" version="1.1" xmlns="http://www.w3.org/2000/svg" xmlns:xlink="http://www.w3.org/1999/xlink" xml:space="preserve" xmlns:serif="http://www.serif.com/" style="fill-rule:evenodd;clip-rule:evenodd;stroke-linejoin:round;stroke-miterlimit:1.41421;"><text x="7.654px" y="382.85px" style="font-family:'Herculanum';font-size:95.448px;">F<tspan x="66.236px 134.964px 211.765px 280.492px " y="382.85px 382.85px 382.85px 382.85px ">orge</tspan></text><text x="19.903px" y="288.25px" style="font-family:'Herculanum';font-size:103.66px;">T<tspan x="81.96px 164.743px 213.023px " y="288.25px 288.25px 288.25px ">ASK</tspan></text><rect x="0" y="304.972" width="333.333" height="3.734"/><g><path d="M53.21,78.066c0.969,2.484 4.494,3.92 7.876,3.209l9.522,-2.002l10.785,27.678c1.049,2.692 4.867,4.249 8.528,3.478l29.165,-6.129c3.665,-0.77 5.781,-3.574 4.736,-6.266l-10.784,-27.678l177.336,-37.267c3.382,-0.711 5.337,-3.3 4.369,-5.784l-2.972,-7.626c-0.968,-2.484 -4.493,-3.92 -7.875,-3.209l-177.329,37.269l-15.909,-40.836c-1.049,-2.691 -4.867,-4.248 -8.532,-3.478l-2.718,0.571c-1.783,0.375 -3.287,1.261 -4.171,2.46l-18.718,25.396c-0.858,1.167 -1.06,2.533 -0.565,3.807l8.18,20.995l-9.522,2.001c-3.383,0.711 -5.338,3.3 -4.373,5.784l2.971,7.627Z" style="fill-rule:nonzero;"/><path d="M297.017,125.456l0,-16.048l-175.52,0l0,8.61l-86.576,0c0,0 32.452,32.35 86.576,32.35c15.109,0 27.357,8.995 27.357,20.092c0,11.097 -12.248,20.092 -27.357,20.092l0,15.143l66.441,0c0,-8.648 9.544,-15.658 21.319,-15.658c11.775,0 21.319,7.01 21.319,15.658l66.441,0l0,-16.048c-24.136,0 -43.702,-14.37 -43.702,-32.097c0,-17.726 19.566,-32.094 43.702,-32.094Z" style="fill-rule:nonzero;"/><path d="M145.526,96.66l101.659,-26.17l-3.401,-6.255l-98.258,32.425Z" style="fill-rule:nonzero;"/><path d="M284.974,78.726l-103.933,20.798l105.965,-14.23l-2.032,-6.568Z" style="fill-rule:nonzero;"/></g></svg>