<?xml version="1.0" encoding="UTF-8" standalone="no"?><!DOCTYPE svg PUBLIC "-//W3C//DTD SVG 1.1//EN" "http://www.w3.org/Graphics/SVG/1.1/DTD/svg11.dtd"><svg width="100%" height="100%" viewBox="0 0 334 267" version="1.1" xmlns="http://www.w3.org/2000/svg" xmlns:xlink="http://www.w3.org/1999/xlink" xml:space="preserve" xmlns:serif="http://www.serif.com/" style="fill-rule:evenodd;clip-rule:evenodd;stroke-linejoin:round;stroke-miterlimit:1.41421;"><g><path d="M25.509,96.534c1.212,3.11 5.625,4.907 9.859,4.017l11.921,-2.506l13.5,34.65c1.313,3.369 6.094,5.318 10.676,4.354l36.511,-7.673c4.588,-0.964 7.237,-4.475 5.929,-7.844l-13.501,-34.65l221.999,-46.652c4.234,-0.89 6.682,-4.131 5.469,-7.241l-3.719,-9.547c-1.212,-3.11 -5.625,-4.907 -9.859,-4.017l-221.99,46.656l-19.916,-51.121c-1.313,-3.369 -6.093,-5.319 -10.68,-4.354l-3.403,0.715c-2.232,0.469 -4.115,1.578 -5.221,3.079l-23.433,31.793c-1.075,1.46 -1.327,3.17 -0.707,4.765l10.24,26.282l-11.921,2.506c-4.234,0.89 -6.681,4.131 -5.474,7.241l3.72,9.547Z" style="fill-rule:nonzero;"/><path d="M330.72,155.86l0,-20.09l-219.726,0l0,10.779l-108.38,0c0,0 40.625,40.497 108.38,40.497c18.914,0 34.246,11.261 34.246,25.152c0,13.892 -15.332,25.153 -34.246,25.153l0,18.956l83.174,0c0,-10.825 11.948,-19.601 26.689,-19.601c14.74,0 26.688,8.776 26.688,19.601l83.175,0l0,-20.09c-30.216,0 -54.709,-17.989 -54.709,-40.18c0,-22.191 24.493,-40.177 54.709,-40.177Z" style="fill-rule:nonzero;"/><path d="M141.075,119.811l127.262,-32.76l-4.257,-7.831l-123.005,40.591Z" style="fill-rule:nonzero;"/><path d="M315.643,97.36l-130.109,26.036l132.653,-17.813l-2.544,-8.223Z" style="fill-rule:nonzero;"/></g></svg>