<?xml version="1.0" encoding="UTF-8" standalone="no"?><!DOCTYPE svg PUBLIC "-//W3C//DTD SVG 1.1//EN" "http://www.w3.org/Graphics/SVG/1.1/DTD/svg11.dtd"><svg width="100%" height="100%" viewBox="0 0 1334 600" version="1.1" xmlns="http://www.w3.org/2000/svg" xmlns:xlink="http://www.w3.org/1999/xlink" xml:space="preserve" xmlns:serif="http://www.serif.com/" style="fill-rule:evenodd;clip-rule:evenodd;stroke-linejoin:round;stroke-miterlimit:1.41421;"><g><text x="4.21px" y="571.133px" style="font-family:'Herculanum';font-size:198.154px;">T<tspan x="129.486px 296.603px 394.067px 593.506px 728.052px 885.899px 1062.29px 1220.13px " y="571.133px 571.133px 571.133px 571.133px 571.133px 571.133px 571.133px 571.133px ">ASKForge</tspan></text><rect x="8.469" y="392.831" width="1316.39" height="13.733"/><path d="M408.111,137.329c1.928,4.507 8.947,7.112 15.68,5.822l18.959,-3.632l21.472,50.223c2.088,4.883 9.691,7.709 16.98,6.311l58.067,-11.121c7.296,-1.399 11.51,-6.487 9.429,-11.371l-21.472,-50.223l353.073,-67.621c6.734,-1.29 10.626,-5.988 8.698,-10.495l-5.916,-13.839c-1.928,-4.507 -8.946,-7.113 -15.679,-5.822l-353.059,67.626l-31.674,-74.098c-2.088,-4.884 -9.691,-7.709 -16.987,-6.311l-5.411,1.036c-3.55,0.679 -6.544,2.288 -8.304,4.463l-37.268,46.083c-1.709,2.116 -2.111,4.595 -1.125,6.907l16.286,38.095l-18.959,3.632c-6.734,1.291 -10.626,5.988 -8.705,10.496l5.915,13.839Z" style="fill-rule:nonzero;"/><path d="M893.525,223.319l0,-29.12l-349.457,0l0,15.624l-172.37,0c0,0 64.611,58.699 172.37,58.699c30.082,0 54.467,16.323 54.467,36.458c0,20.135 -24.385,36.457 -54.467,36.457l0,27.478l132.283,0c0,-15.692 19.002,-28.411 42.446,-28.411c23.443,0 42.446,12.719 42.446,28.411l132.282,0l0,-29.12c-48.055,0 -87.01,-26.075 -87.01,-58.24c0,-32.166 38.955,-58.236 87.01,-58.236Z" style="fill-rule:nonzero;"/><path d="M591.91,171.068l202.4,-47.486l-6.77,-11.351l-195.63,58.837Z" style="fill-rule:nonzero;"/><path d="M869.548,138.526l-206.929,37.738l210.975,-25.82l-4.046,-11.918Z" style="fill-rule:nonzero;"/></g></svg>